<svg width="65" height="65" viewBox="0 0 65 65" fill="none" xmlns="http://www.w3.org/2000/svg">
<circle cx="32.5" cy="32.5" r="32.5" fill="white"/>
<g clip-path="url(#clip0_1_145)">
<path d="M38.7441 17.6272H26.2559C25.0521 17.6272 24.072 18.6073 24.072 19.811V45.1886C24.072 46.3928 25.0521 47.373 26.2559 47.373H38.7436C39.9478 47.373 40.928 46.3928 40.928 45.1891V19.811C40.928 18.6073 39.9478 17.6272 38.7441 17.6272ZM25.0635 21.5933H39.9364V40.4323H25.0635V21.5933ZM26.2559 18.6187H38.7436C39.4015 18.6187 39.9364 19.1537 39.9364 19.811V20.6018H25.0635V19.811C25.0635 19.1537 25.5985 18.6187 26.2559 18.6187ZM38.7441 46.3814H26.2559C25.5985 46.3814 25.0635 45.8465 25.0635 45.1891V41.4238H39.9364V45.1891C39.9364 45.8465 39.4015 46.3814 38.7441 46.3814Z" fill="#DC7000"/>
<path d="M32.5 41.9197C31.4063 41.9197 30.5169 42.8091 30.5169 43.9027C30.5169 44.9964 31.4063 45.8858 32.5 45.8858C33.5936 45.8858 34.483 44.9964 34.483 43.9027C34.483 42.8091 33.5936 41.9197 32.5 41.9197ZM32.5 44.8943C31.9532 44.8943 31.5085 44.4496 31.5085 43.9027C31.5085 43.3559 31.9532 42.9112 32.5 42.9112C33.0468 42.9112 33.4915 43.3559 33.4915 43.9027C33.4915 44.4496 33.0468 44.8943 32.5 44.8943Z" fill="#DC7000"/>
<path d="M30.5169 20.106H32.5C32.7741 20.106 32.9958 19.8844 32.9958 19.6103C32.9958 19.3361 32.7741 19.1145 32.5 19.1145H30.5169C30.2428 19.1145 30.0212 19.3361 30.0212 19.6103C30.0212 19.8844 30.2428 20.106 30.5169 20.106Z" fill="#DC7000"/>
<path d="M33.9873 20.106H34.483C34.7572 20.106 34.9788 19.8844 34.9788 19.6103C34.9788 19.3361 34.7572 19.1145 34.483 19.1145H33.9873C33.7131 19.1145 33.4915 19.3361 33.4915 19.6103C33.4915 19.8844 33.7131 20.106 33.9873 20.106Z" fill="#DC7000"/>
<path d="M45.6932 19.8925C45.4994 19.6986 45.1861 19.6986 44.9922 19.8925C44.7984 20.0863 44.7984 20.3996 44.9922 20.5935C46.8444 22.4456 46.8444 25.4594 44.9922 27.312C44.7984 27.5059 44.7984 27.8192 44.9922 28.013C45.0889 28.1097 45.2158 28.1583 45.3427 28.1583C45.4696 28.1583 45.5965 28.1097 45.6932 28.013C47.9321 25.7747 47.9321 22.1313 45.6932 19.8925Z" fill="#DC7000"/>
<path d="M43.6056 21.0206C43.4117 20.8268 43.0984 20.8268 42.9046 21.0206C42.7107 21.2145 42.7107 21.5278 42.9046 21.7216C43.5178 22.3349 43.8554 23.1519 43.8554 24.0215C43.8554 24.891 43.5178 25.7076 42.9046 26.3208C42.7107 26.5147 42.7107 26.828 42.9046 27.0218C43.0012 27.1185 43.1282 27.1671 43.2551 27.1671C43.382 27.1671 43.5089 27.1185 43.6056 27.0218C44.4062 26.2217 44.847 25.1558 44.847 24.0215C44.847 22.8872 44.4067 21.8208 43.6056 21.0206Z" fill="#DC7000"/>
<path d="M20.0078 20.5935C20.2016 20.3996 20.2016 20.0863 20.0078 19.8925C19.8139 19.6986 19.5006 19.6986 19.3068 19.8925C17.0679 22.1313 17.0679 25.7742 19.3068 28.013C19.4034 28.1097 19.5304 28.1583 19.6573 28.1583C19.7842 28.1583 19.9111 28.1097 20.0078 28.013C20.2016 27.8192 20.2016 27.5059 20.0078 27.312C18.1551 25.4599 18.1551 22.4461 20.0078 20.5935Z" fill="#DC7000"/>
<path d="M22.0954 20.8839C21.9016 20.6901 21.5883 20.6901 21.3944 20.8839C20.5938 21.6841 20.153 22.75 20.153 23.8843C20.153 25.0186 20.5938 26.0845 21.3944 26.8851C21.4911 26.9818 21.618 27.0304 21.7449 27.0304C21.8719 27.0304 21.9988 26.9818 22.0954 26.8851C22.2893 26.6913 22.2893 26.378 22.0954 26.1841C21.4822 25.5708 21.1446 24.7538 21.1446 23.8843C21.1446 23.0147 21.4817 22.1982 22.0954 21.5849C22.2888 21.3916 22.2888 21.0778 22.0954 20.8839Z" fill="#DC7000"/>
</g>
<defs>
<clipPath id="clip0_1_145">
<rect width="29.7458" height="29.7458" fill="white" transform="translate(17.6271 17.6272)"/>
</clipPath>
</defs>
</svg>
