<svg width="65" height="65" viewBox="0 0 65 65" fill="none" xmlns="http://www.w3.org/2000/svg">
<circle cx="32.5" cy="32.5" r="32.5" fill="white"/>
<g clip-path="url(#clip0_1_220)">
<path d="M45.7204 18.178H20.3814C18.2528 18.1804 16.5279 19.9053 16.5255 22.0339V44.0678C16.5279 46.1964 18.2528 47.9213 20.3814 47.9237H45.7204C47.8489 47.9213 49.5739 46.1964 49.5763 44.0678V22.0339C49.5739 19.9053 47.8489 18.1804 45.7204 18.178ZM48.4746 44.0678C48.4728 45.5882 47.2407 46.8202 45.7204 46.822H20.3814C18.861 46.8202 17.629 45.5882 17.6271 44.0678V22.0339C17.629 20.5135 18.861 19.2815 20.3814 19.2797H45.7204C47.2407 19.2815 48.4728 20.5135 48.4746 22.0339V44.0678Z" fill="#DC7000"/>
<path d="M45.7204 22.5847H20.3814C19.4688 22.5847 18.7289 23.3246 18.7289 24.2373V44.0678C18.7289 44.9804 19.4688 45.7203 20.3814 45.7203H45.7204C46.6331 45.7203 47.3729 44.9804 47.3729 44.0678V24.2373C47.3729 23.3246 46.6331 22.5847 45.7204 22.5847ZM33.0509 33.5268L27.0516 30.2966L33.0509 27.0664L39.0502 30.2966L33.0509 33.5268ZM39.6611 31.2187V37.6779L33.6018 40.9423V34.483L39.6611 31.2187ZM32.5001 34.483V40.9423L26.4407 37.6779V31.2187L32.5001 34.483ZM19.8306 24.2373C19.8306 23.933 20.0772 23.6864 20.3814 23.6864H32.5001V26.1101L25.6288 29.8118C25.6216 29.8157 25.6134 29.8173 25.6062 29.8218C25.4396 29.9218 25.3381 30.1023 25.3391 30.2966V34.9138L19.8306 37.668V24.2373ZM46.2713 44.0678C46.2713 44.372 46.0246 44.6186 45.7204 44.6186H20.3814C20.0772 44.6186 19.8306 44.372 19.8306 44.0678V38.8997L25.3391 36.1455V38.0084C25.3392 38.211 25.4504 38.3972 25.6288 38.4932L32.7898 42.3491C32.9528 42.4369 33.149 42.4369 33.312 42.3491L40.473 38.4932C40.6514 38.3972 40.7627 38.211 40.7628 38.0084V36.1455L46.2713 38.8997V44.0678ZM46.2713 37.668L40.7628 34.9138V30.2966C40.7627 30.1028 40.6608 29.9234 40.4945 29.824C40.4874 29.8195 40.4791 29.8179 40.4719 29.814L33.6018 26.1101V23.6864H45.7204C46.0246 23.6864 46.2713 23.933 46.2713 24.2373V37.668Z" fill="#DC7000"/>
<path d="M19.8305 21.483C20.1347 21.483 20.3814 21.2364 20.3814 20.9322C20.3814 20.628 20.1347 20.3813 19.8305 20.3813C19.5263 20.3813 19.2797 20.628 19.2797 20.9322C19.2797 21.2364 19.5263 21.483 19.8305 21.483Z" fill="#DC7000"/>
<path d="M22.0339 21.483C22.3381 21.483 22.5847 21.2364 22.5847 20.9322C22.5847 20.628 22.3381 20.3813 22.0339 20.3813C21.7297 20.3813 21.483 20.628 21.483 20.9322C21.483 21.2364 21.7297 21.483 22.0339 21.483Z" fill="#DC7000"/>
<path d="M24.2373 21.483C24.5415 21.483 24.7882 21.2364 24.7882 20.9322C24.7882 20.628 24.5415 20.3813 24.2373 20.3813C23.9331 20.3813 23.6865 20.628 23.6865 20.9322C23.6865 21.2364 23.9331 21.483 24.2373 21.483Z" fill="#DC7000"/>
<path d="M38.0086 21.483H45.7204C46.0246 21.483 46.2713 21.2364 46.2713 20.9322C46.2713 20.628 46.0246 20.3813 45.7204 20.3813H38.0086C37.7043 20.3813 37.4577 20.628 37.4577 20.9322C37.4577 21.2364 37.7043 21.483 38.0086 21.483Z" fill="#DC7000"/>
</g>
<defs>
<clipPath id="clip0_1_220">
<rect width="33.0508" height="33.0508" fill="white" transform="translate(16.5255 16.5254)"/>
</clipPath>
</defs>
</svg>
