<svg width="65" height="65" viewBox="0 0 65 65" fill="none" xmlns="http://www.w3.org/2000/svg">
<circle cx="32.5" cy="32.5" r="32.5" fill="white"/>
<g clip-path="url(#clip0_1_187)">
<path d="M21.4056 27.2412H13.2203V29.5651H21.4056C22.0463 29.5651 22.5676 30.0863 22.5676 30.727C22.5676 31.3677 22.0463 31.889 21.4056 31.889H16.7062C14.7841 31.889 13.2203 33.4527 13.2203 35.3748V38.8606H15.5442V35.3748C15.5442 34.7341 16.0655 34.2129 16.7062 34.2129H21.4056C23.3277 34.2129 24.8914 32.6491 24.8914 30.727C24.8914 28.805 23.3277 27.2412 21.4056 27.2412Z" fill="#DC7000"/>
<path d="M33.6318 27.2412C31.7097 27.2412 30.146 28.805 30.146 30.727V35.3748C30.146 36.0155 29.6247 36.5368 28.984 36.5368H23.7295V38.8606H28.984C30.9061 38.8606 32.4699 37.2969 32.4699 35.3748V30.727C32.4699 30.0863 32.9911 29.5651 33.6318 29.5651H38.8864V27.2412H33.6318Z" fill="#DC7000"/>
<path d="M50.5575 34.2127V29.5651C50.5575 28.2837 49.515 27.2412 48.2336 27.2412C47.7934 27.2412 47.3647 27.3652 46.9935 27.5996L39.6346 32.2473C38.9559 32.6759 38.5507 33.4107 38.5507 34.2129C38.5507 35.4943 39.5932 36.5368 40.8746 36.5368H48.2336V38.8606H50.5575V36.5368H52.8814V34.2129L50.5575 34.2127ZM48.2336 34.2126L40.8755 34.2122L48.2336 29.5651V34.2126Z" fill="#DC7000"/>
</g>
<defs>
<clipPath id="clip0_1_187">
<rect width="39.661" height="39.661" fill="white" transform="translate(13.2203 13.2205)"/>
</clipPath>
</defs>
</svg>
