<svg width="65" height="65" viewBox="0 0 65 65" fill="none" xmlns="http://www.w3.org/2000/svg">
<circle cx="32.5" cy="32.5" r="32.5" fill="white"/>
<g clip-path="url(#clip0_1_238)">
<path d="M47.3522 42.4498L46.6907 39.9807C46.6046 39.6593 46.2741 39.4683 45.9528 39.5547C45.6313 39.6408 45.4405 39.9711 45.5267 40.2926L45.8163 41.3735L41.5886 38.9619V28.9387C41.5886 28.723 41.4733 28.5238 41.2863 28.4163L32.5507 23.3939V18.6212L33.3297 19.4002C33.5651 19.6355 33.9465 19.6355 34.1819 19.4002C34.4172 19.165 34.4172 18.7834 34.1819 18.5481L32.3743 16.7405C32.1387 16.504 31.753 16.5088 31.5222 16.7405L29.7146 18.5481C29.4793 18.7834 29.4793 19.1649 29.7146 19.4002C29.9499 19.6355 30.3314 19.6355 30.5667 19.4002L31.3457 18.6212V23.395L22.6688 28.4172C22.4826 28.5249 22.368 28.7237 22.368 28.9387V38.8645L18.0808 41.3007L18.3709 40.2178C18.457 39.8964 18.2662 39.566 17.9448 39.4799C17.6233 39.3936 17.293 39.5845 17.2069 39.9059L16.5453 42.3757C16.4616 42.6884 16.6488 43.0364 16.9894 43.1184L19.4406 43.7752C19.7646 43.862 20.0931 43.6679 20.1785 43.3491C20.2647 43.0277 20.0739 42.6974 19.7525 42.6112L18.7069 42.331L22.962 39.9131L31.6805 45.047C31.8671 45.1569 32.0989 45.1584 32.2872 45.0498L34.4974 43.7756C34.7857 43.6095 34.8846 43.241 34.7184 42.9528C34.5522 42.6645 34.1838 42.5655 33.8955 42.7317L31.9895 43.8305L24.1707 39.2264L31.9103 34.8283L39.7991 39.3284L38.5922 40.0242C38.3039 40.1903 38.2049 40.5588 38.3711 40.847C38.5373 41.1354 38.9058 41.2344 39.194 41.0681L41.0118 40.0201L45.1923 42.4048L44.1453 42.6854C43.8239 42.7715 43.6331 43.1018 43.7193 43.4233C43.8049 43.7431 44.1342 43.936 44.4572 43.8493L46.872 43.2023C47.2168 43.1415 47.4447 42.7949 47.3522 42.4498ZM40.3835 38.2744L32.5507 33.8063V24.784L40.3835 29.2873V38.2744ZM23.5731 29.2861L31.3456 24.7875V33.763L23.5731 38.1797V29.2861Z" fill="#DC7000"/>
<path d="M36.5274 42.4726C36.8602 42.4726 37.1299 42.2029 37.1299 41.8701C37.1299 41.5373 36.8602 41.2676 36.5274 41.2676C36.1946 41.2676 35.9249 41.5373 35.9249 41.8701C35.9249 42.2029 36.1946 42.4726 36.5274 42.4726Z" fill="#DC7000"/>
</g>
<defs>
<clipPath id="clip0_1_238">
<rect width="30.8475" height="30.8475" fill="white" transform="translate(16.5255 15.4238)"/>
</clipPath>
</defs>
</svg>
