<svg width="55" height="55" viewBox="0 0 55 55" fill="none" xmlns="http://www.w3.org/2000/svg">
<rect width="55" height="55" rx="27.5" fill="#FFECEC"/>
<path fill-rule="evenodd" clip-rule="evenodd" d="M27.5001 26.3C28.4549 26.3 29.3706 25.9207 30.0457 25.2456C30.7208 24.5705 31.1001 23.6548 31.1001 22.7C31.1001 21.7452 30.7208 20.8296 30.0457 20.1544C29.3706 19.4793 28.4549 19.1 27.5001 19.1C26.5453 19.1 25.6296 19.4793 24.9545 20.1544C24.2794 20.8296 23.9001 21.7452 23.9001 22.7C23.9001 23.6548 24.2794 24.5705 24.9545 25.2456C25.6296 25.9207 26.5453 26.3 27.5001 26.3ZM22.3988 37.1C20.577 37.1 19.0423 35.5686 19.7395 33.8855C20.1616 32.8663 20.7804 31.9403 21.5604 31.1603C22.3404 30.3803 23.2664 29.7616 24.2856 29.3394C25.3047 28.9173 26.397 28.7 27.5001 28.7C28.6032 28.7 29.6955 28.9173 30.7146 29.3394C31.7338 29.7616 32.6598 30.3803 33.4398 31.1603C34.2198 31.9403 34.8385 32.8663 35.2607 33.8855C35.9579 35.5686 34.4232 37.1 32.6014 37.1H22.3988Z" fill="#DC7000"/>
</svg>
